<mxfile host="app.diagrams.net" modified="2024-06-14T15:52:39.983Z" agent="Mozilla/5.0 (X11; CrOS x86_64 14541.0.0) AppleWebKit/537.36 (KHTML, like Gecko) Chrome/125.0.0.0 Safari/537.36" etag="QpvP3X2WtF9HmmwF8ib4" version="24.5.4" type="device">
  <diagram id="C5RBs43oDa-KdzZeNtuy" name="Page-1">
    <mxGraphModel dx="1762" dy="777" grid="1" gridSize="10" guides="1" tooltips="1" connect="1" arrows="1" fold="1" page="1" pageScale="1" pageWidth="827" pageHeight="1169" math="0" shadow="0">
      <root>
        <mxCell id="WIyWlLk6GJQsqaUBKTNV-0" />
        <mxCell id="WIyWlLk6GJQsqaUBKTNV-1" parent="WIyWlLk6GJQsqaUBKTNV-0" />
        <mxCell id="_XRhkgWkinT8Ey7R0ipr-0" value="Ipersistence_manager" style="swimlane;fontStyle=1;align=center;verticalAlign=top;childLayout=stackLayout;horizontal=1;startSize=26;horizontalStack=0;resizeParent=1;resizeParentMax=0;resizeLast=0;collapsible=1;marginBottom=0;whiteSpace=wrap;html=1;" vertex="1" parent="WIyWlLk6GJQsqaUBKTNV-1">
          <mxGeometry x="320" width="180" height="150" as="geometry" />
        </mxCell>
        <mxCell id="_XRhkgWkinT8Ey7R0ipr-1" value="class IPersistenceManager(ABC):" style="text;strokeColor=none;fillColor=none;align=left;verticalAlign=top;spacingLeft=4;spacingRight=4;overflow=hidden;rotatable=0;points=[[0,0.5],[1,0.5]];portConstraint=eastwest;whiteSpace=wrap;html=1;" vertex="1" parent="_XRhkgWkinT8Ey7R0ipr-0">
          <mxGeometry y="26" width="180" height="44" as="geometry" />
        </mxCell>
        <mxCell id="_XRhkgWkinT8Ey7R0ipr-2" value="" style="line;strokeWidth=1;fillColor=none;align=left;verticalAlign=middle;spacingTop=-1;spacingLeft=3;spacingRight=3;rotatable=0;labelPosition=right;points=[];portConstraint=eastwest;strokeColor=inherit;" vertex="1" parent="_XRhkgWkinT8Ey7R0ipr-0">
          <mxGeometry y="70" width="180" height="8" as="geometry" />
        </mxCell>
        <mxCell id="_XRhkgWkinT8Ey7R0ipr-3" value="save&lt;div&gt;get&lt;/div&gt;&lt;div&gt;update&lt;/div&gt;&lt;div&gt;delete&lt;/div&gt;" style="text;strokeColor=none;fillColor=none;align=left;verticalAlign=top;spacingLeft=4;spacingRight=4;overflow=hidden;rotatable=0;points=[[0,0.5],[1,0.5]];portConstraint=eastwest;whiteSpace=wrap;html=1;" vertex="1" parent="_XRhkgWkinT8Ey7R0ipr-0">
          <mxGeometry y="78" width="180" height="72" as="geometry" />
        </mxCell>
        <mxCell id="_XRhkgWkinT8Ey7R0ipr-4" value="Data manager" style="swimlane;fontStyle=1;align=center;verticalAlign=top;childLayout=stackLayout;horizontal=1;startSize=26;horizontalStack=0;resizeParent=1;resizeParentMax=0;resizeLast=0;collapsible=1;marginBottom=0;whiteSpace=wrap;html=1;" vertex="1" parent="WIyWlLk6GJQsqaUBKTNV-1">
          <mxGeometry x="20" width="190" height="210" as="geometry" />
        </mxCell>
        <mxCell id="_XRhkgWkinT8Ey7R0ipr-5" value="class DataManager(IPersistenceManager):" style="text;strokeColor=none;fillColor=none;align=left;verticalAlign=top;spacingLeft=4;spacingRight=4;overflow=hidden;rotatable=0;points=[[0,0.5],[1,0.5]];portConstraint=eastwest;whiteSpace=wrap;html=1;" vertex="1" parent="_XRhkgWkinT8Ey7R0ipr-4">
          <mxGeometry y="26" width="190" height="54" as="geometry" />
        </mxCell>
        <mxCell id="_XRhkgWkinT8Ey7R0ipr-6" value="" style="line;strokeWidth=1;fillColor=none;align=left;verticalAlign=middle;spacingTop=-1;spacingLeft=3;spacingRight=3;rotatable=0;labelPosition=right;points=[];portConstraint=eastwest;strokeColor=inherit;" vertex="1" parent="_XRhkgWkinT8Ey7R0ipr-4">
          <mxGeometry y="80" width="190" height="8" as="geometry" />
        </mxCell>
        <mxCell id="_XRhkgWkinT8Ey7R0ipr-7" value="__init__&lt;div&gt;_load_data&lt;/div&gt;&lt;div&gt;_save_data&lt;/div&gt;&lt;div&gt;save&lt;/div&gt;&lt;div&gt;get&lt;/div&gt;&lt;div&gt;update&lt;/div&gt;&lt;div&gt;delete&lt;/div&gt;&lt;div&gt;get_all&lt;/div&gt;" style="text;strokeColor=none;fillColor=none;align=left;verticalAlign=top;spacingLeft=4;spacingRight=4;overflow=hidden;rotatable=0;points=[[0,0.5],[1,0.5]];portConstraint=eastwest;whiteSpace=wrap;html=1;" vertex="1" parent="_XRhkgWkinT8Ey7R0ipr-4">
          <mxGeometry y="88" width="190" height="122" as="geometry" />
        </mxCell>
        <mxCell id="_XRhkgWkinT8Ey7R0ipr-8" value="Place" style="swimlane;fontStyle=1;align=center;verticalAlign=top;childLayout=stackLayout;horizontal=1;startSize=26;horizontalStack=0;resizeParent=1;resizeParentMax=0;resizeLast=0;collapsible=1;marginBottom=0;whiteSpace=wrap;html=1;" vertex="1" parent="WIyWlLk6GJQsqaUBKTNV-1">
          <mxGeometry x="334" y="320" width="160" height="370" as="geometry" />
        </mxCell>
        <mxCell id="_XRhkgWkinT8Ey7R0ipr-9" value="&lt;div&gt;&amp;nbsp; &amp;nbsp;id (String)&lt;/div&gt;&lt;div&gt;&amp;nbsp; &amp;nbsp; &amp;nbsp; &amp;nbsp; name (String)&lt;/div&gt;&lt;div&gt;&amp;nbsp; &amp;nbsp; &amp;nbsp; &amp;nbsp; description (String)&lt;/div&gt;&lt;div&gt;&amp;nbsp; &amp;nbsp; &amp;nbsp; &amp;nbsp; address (String)&lt;/div&gt;&lt;div&gt;&amp;nbsp; &amp;nbsp; &amp;nbsp; &amp;nbsp; city_id (String) # FK to City&lt;/div&gt;&lt;div&gt;&amp;nbsp; &amp;nbsp; &amp;nbsp; &amp;nbsp; latitude (Float)&lt;/div&gt;&lt;div&gt;&amp;nbsp; &amp;nbsp; &amp;nbsp; &amp;nbsp; longitude (Float)&lt;/div&gt;&lt;div&gt;&amp;nbsp; &amp;nbsp; &amp;nbsp; &amp;nbsp; host_id (String) # FK to User&lt;/div&gt;&lt;div&gt;&amp;nbsp; &amp;nbsp; &amp;nbsp; &amp;nbsp; number_of_rooms (Integer)&lt;/div&gt;&lt;div&gt;&amp;nbsp; &amp;nbsp; &amp;nbsp; &amp;nbsp; number_of_bathrooms (Integer)&lt;/div&gt;&lt;div&gt;&amp;nbsp; &amp;nbsp; &amp;nbsp; &amp;nbsp; price_per_night (Float)&lt;/div&gt;&lt;div&gt;&amp;nbsp; &amp;nbsp; &amp;nbsp; &amp;nbsp; max_guests (Integer)&lt;/div&gt;&lt;div&gt;&amp;nbsp; &amp;nbsp; &amp;nbsp; &amp;nbsp; amenity_ids (List of Strings) # FK to Amenity&lt;/div&gt;&lt;div&gt;&lt;br&gt;&lt;/div&gt;" style="text;strokeColor=none;fillColor=none;align=left;verticalAlign=top;spacingLeft=4;spacingRight=4;overflow=hidden;rotatable=0;points=[[0,0.5],[1,0.5]];portConstraint=eastwest;whiteSpace=wrap;html=1;" vertex="1" parent="_XRhkgWkinT8Ey7R0ipr-8">
          <mxGeometry y="26" width="160" height="274" as="geometry" />
        </mxCell>
        <mxCell id="_XRhkgWkinT8Ey7R0ipr-10" value="" style="line;strokeWidth=1;fillColor=none;align=left;verticalAlign=middle;spacingTop=-1;spacingLeft=3;spacingRight=3;rotatable=0;labelPosition=right;points=[];portConstraint=eastwest;strokeColor=inherit;" vertex="1" parent="_XRhkgWkinT8Ey7R0ipr-8">
          <mxGeometry y="300" width="160" height="8" as="geometry" />
        </mxCell>
        <mxCell id="_XRhkgWkinT8Ey7R0ipr-11" value="__init__&lt;div&gt;update&lt;/div&gt;&lt;div&gt;to_dict&lt;/div&gt;&lt;div&gt;save&lt;/div&gt;" style="text;strokeColor=none;fillColor=none;align=left;verticalAlign=top;spacingLeft=4;spacingRight=4;overflow=hidden;rotatable=0;points=[[0,0.5],[1,0.5]];portConstraint=eastwest;whiteSpace=wrap;html=1;" vertex="1" parent="_XRhkgWkinT8Ey7R0ipr-8">
          <mxGeometry y="308" width="160" height="62" as="geometry" />
        </mxCell>
        <mxCell id="_XRhkgWkinT8Ey7R0ipr-13" value="User" style="swimlane;fontStyle=1;align=center;verticalAlign=top;childLayout=stackLayout;horizontal=1;startSize=26;horizontalStack=0;resizeParent=1;resizeParentMax=0;resizeLast=0;collapsible=1;marginBottom=0;whiteSpace=wrap;html=1;" vertex="1" parent="WIyWlLk6GJQsqaUBKTNV-1">
          <mxGeometry x="20" y="290" width="160" height="200" as="geometry" />
        </mxCell>
        <mxCell id="_XRhkgWkinT8Ey7R0ipr-14" value="&lt;div&gt;&amp;nbsp; &amp;nbsp; &amp;nbsp; &amp;nbsp;id (String)&lt;/div&gt;&lt;div&gt;&amp;nbsp; &amp;nbsp; &amp;nbsp; &amp;nbsp; first_name (String)&lt;/div&gt;&lt;div&gt;&amp;nbsp; &amp;nbsp; &amp;nbsp; &amp;nbsp; last_name (String)&lt;/div&gt;&lt;div&gt;&amp;nbsp; &amp;nbsp; &amp;nbsp; &amp;nbsp; email (String)&lt;/div&gt;&lt;div&gt;&amp;nbsp; &amp;nbsp; &amp;nbsp; &amp;nbsp; password (String)&lt;/div&gt;&lt;div&gt;&amp;nbsp; &amp;nbsp; &amp;nbsp; &amp;nbsp; role (String)&lt;/div&gt;" style="text;strokeColor=none;fillColor=none;align=left;verticalAlign=top;spacingLeft=4;spacingRight=4;overflow=hidden;rotatable=0;points=[[0,0.5],[1,0.5]];portConstraint=eastwest;whiteSpace=wrap;html=1;" vertex="1" parent="_XRhkgWkinT8Ey7R0ipr-13">
          <mxGeometry y="26" width="160" height="104" as="geometry" />
        </mxCell>
        <mxCell id="_XRhkgWkinT8Ey7R0ipr-15" value="" style="line;strokeWidth=1;fillColor=none;align=left;verticalAlign=middle;spacingTop=-1;spacingLeft=3;spacingRight=3;rotatable=0;labelPosition=right;points=[];portConstraint=eastwest;strokeColor=inherit;" vertex="1" parent="_XRhkgWkinT8Ey7R0ipr-13">
          <mxGeometry y="130" width="160" height="8" as="geometry" />
        </mxCell>
        <mxCell id="_XRhkgWkinT8Ey7R0ipr-16" value="__init__&lt;div&gt;update&lt;/div&gt;&lt;div&gt;to_dict&lt;/div&gt;&lt;div&gt;save&lt;/div&gt;" style="text;strokeColor=none;fillColor=none;align=left;verticalAlign=top;spacingLeft=4;spacingRight=4;overflow=hidden;rotatable=0;points=[[0,0.5],[1,0.5]];portConstraint=eastwest;whiteSpace=wrap;html=1;" vertex="1" parent="_XRhkgWkinT8Ey7R0ipr-13">
          <mxGeometry y="138" width="160" height="62" as="geometry" />
        </mxCell>
        <mxCell id="_XRhkgWkinT8Ey7R0ipr-17" value="Amenity" style="swimlane;fontStyle=1;align=center;verticalAlign=top;childLayout=stackLayout;horizontal=1;startSize=26;horizontalStack=0;resizeParent=1;resizeParentMax=0;resizeLast=0;collapsible=1;marginBottom=0;whiteSpace=wrap;html=1;" vertex="1" parent="WIyWlLk6GJQsqaUBKTNV-1">
          <mxGeometry x="630" y="320" width="160" height="190" as="geometry" />
        </mxCell>
        <mxCell id="_XRhkgWkinT8Ey7R0ipr-18" value="&lt;div&gt;&amp;nbsp;id (String)&lt;/div&gt;&lt;div&gt;&amp;nbsp; &amp;nbsp; &amp;nbsp; &amp;nbsp; name (String)&lt;/div&gt;&lt;div&gt;&lt;br&gt;&lt;/div&gt;" style="text;strokeColor=none;fillColor=none;align=left;verticalAlign=top;spacingLeft=4;spacingRight=4;overflow=hidden;rotatable=0;points=[[0,0.5],[1,0.5]];portConstraint=eastwest;whiteSpace=wrap;html=1;" vertex="1" parent="_XRhkgWkinT8Ey7R0ipr-17">
          <mxGeometry y="26" width="160" height="44" as="geometry" />
        </mxCell>
        <mxCell id="_XRhkgWkinT8Ey7R0ipr-19" value="" style="line;strokeWidth=1;fillColor=none;align=left;verticalAlign=middle;spacingTop=-1;spacingLeft=3;spacingRight=3;rotatable=0;labelPosition=right;points=[];portConstraint=eastwest;strokeColor=inherit;" vertex="1" parent="_XRhkgWkinT8Ey7R0ipr-17">
          <mxGeometry y="70" width="160" height="8" as="geometry" />
        </mxCell>
        <mxCell id="_XRhkgWkinT8Ey7R0ipr-20" value="__init__&lt;div&gt;update&lt;/div&gt;&lt;div&gt;to_dict&lt;/div&gt;&lt;div&gt;save&lt;/div&gt;&lt;div&gt;get&lt;/div&gt;&lt;div&gt;get_all&lt;/div&gt;&lt;div&gt;delete&lt;/div&gt;" style="text;strokeColor=none;fillColor=none;align=left;verticalAlign=top;spacingLeft=4;spacingRight=4;overflow=hidden;rotatable=0;points=[[0,0.5],[1,0.5]];portConstraint=eastwest;whiteSpace=wrap;html=1;" vertex="1" parent="_XRhkgWkinT8Ey7R0ipr-17">
          <mxGeometry y="78" width="160" height="112" as="geometry" />
        </mxCell>
        <mxCell id="_XRhkgWkinT8Ey7R0ipr-21" value="City" style="swimlane;fontStyle=1;align=center;verticalAlign=top;childLayout=stackLayout;horizontal=1;startSize=26;horizontalStack=0;resizeParent=1;resizeParentMax=0;resizeLast=0;collapsible=1;marginBottom=0;whiteSpace=wrap;html=1;" vertex="1" parent="WIyWlLk6GJQsqaUBKTNV-1">
          <mxGeometry x="20" y="540" width="160" height="200" as="geometry" />
        </mxCell>
        <mxCell id="_XRhkgWkinT8Ey7R0ipr-22" value="&lt;div&gt;&amp;nbsp;id (String)&lt;/div&gt;&lt;div&gt;&amp;nbsp; &amp;nbsp; &amp;nbsp; &amp;nbsp; name (String)&lt;/div&gt;&lt;div&gt;&amp;nbsp; &amp;nbsp; &amp;nbsp; &amp;nbsp; country_id (String) # FK to Country&lt;/div&gt;&lt;div&gt;&lt;br&gt;&lt;/div&gt;" style="text;strokeColor=none;fillColor=none;align=left;verticalAlign=top;spacingLeft=4;spacingRight=4;overflow=hidden;rotatable=0;points=[[0,0.5],[1,0.5]];portConstraint=eastwest;whiteSpace=wrap;html=1;" vertex="1" parent="_XRhkgWkinT8Ey7R0ipr-21">
          <mxGeometry y="26" width="160" height="74" as="geometry" />
        </mxCell>
        <mxCell id="_XRhkgWkinT8Ey7R0ipr-23" value="" style="line;strokeWidth=1;fillColor=none;align=left;verticalAlign=middle;spacingTop=-1;spacingLeft=3;spacingRight=3;rotatable=0;labelPosition=right;points=[];portConstraint=eastwest;strokeColor=inherit;" vertex="1" parent="_XRhkgWkinT8Ey7R0ipr-21">
          <mxGeometry y="100" width="160" height="8" as="geometry" />
        </mxCell>
        <mxCell id="_XRhkgWkinT8Ey7R0ipr-24" value="__init__&lt;div&gt;to_dict&lt;/div&gt;&lt;div&gt;save&lt;/div&gt;&lt;div&gt;get&lt;/div&gt;&lt;div&gt;get_all&lt;/div&gt;&lt;div&gt;delete&lt;/div&gt;" style="text;strokeColor=none;fillColor=none;align=left;verticalAlign=top;spacingLeft=4;spacingRight=4;overflow=hidden;rotatable=0;points=[[0,0.5],[1,0.5]];portConstraint=eastwest;whiteSpace=wrap;html=1;" vertex="1" parent="_XRhkgWkinT8Ey7R0ipr-21">
          <mxGeometry y="108" width="160" height="92" as="geometry" />
        </mxCell>
        <mxCell id="_XRhkgWkinT8Ey7R0ipr-26" value="Country" style="swimlane;fontStyle=1;align=center;verticalAlign=top;childLayout=stackLayout;horizontal=1;startSize=26;horizontalStack=0;resizeParent=1;resizeParentMax=0;resizeLast=0;collapsible=1;marginBottom=0;whiteSpace=wrap;html=1;" vertex="1" parent="WIyWlLk6GJQsqaUBKTNV-1">
          <mxGeometry x="650" y="630" width="160" height="130" as="geometry" />
        </mxCell>
        <mxCell id="_XRhkgWkinT8Ey7R0ipr-27" value="&lt;div&gt;&amp;nbsp; &amp;nbsp;id (String)&lt;/div&gt;&lt;div&gt;&amp;nbsp; &amp;nbsp;name (String)&lt;/div&gt;" style="text;strokeColor=none;fillColor=none;align=left;verticalAlign=top;spacingLeft=4;spacingRight=4;overflow=hidden;rotatable=0;points=[[0,0.5],[1,0.5]];portConstraint=eastwest;whiteSpace=wrap;html=1;" vertex="1" parent="_XRhkgWkinT8Ey7R0ipr-26">
          <mxGeometry y="26" width="160" height="54" as="geometry" />
        </mxCell>
        <mxCell id="_XRhkgWkinT8Ey7R0ipr-28" value="" style="line;strokeWidth=1;fillColor=none;align=left;verticalAlign=middle;spacingTop=-1;spacingLeft=3;spacingRight=3;rotatable=0;labelPosition=right;points=[];portConstraint=eastwest;strokeColor=inherit;" vertex="1" parent="_XRhkgWkinT8Ey7R0ipr-26">
          <mxGeometry y="80" width="160" height="8" as="geometry" />
        </mxCell>
        <mxCell id="_XRhkgWkinT8Ey7R0ipr-29" value="__init__&lt;div&gt;update&lt;/div&gt;" style="text;strokeColor=none;fillColor=none;align=left;verticalAlign=top;spacingLeft=4;spacingRight=4;overflow=hidden;rotatable=0;points=[[0,0.5],[1,0.5]];portConstraint=eastwest;whiteSpace=wrap;html=1;" vertex="1" parent="_XRhkgWkinT8Ey7R0ipr-26">
          <mxGeometry y="88" width="160" height="42" as="geometry" />
        </mxCell>
        <mxCell id="_XRhkgWkinT8Ey7R0ipr-30" value="" style="endArrow=block;startArrow=block;endFill=1;startFill=1;html=1;rounded=0;exitX=1.001;exitY=0.053;exitDx=0;exitDy=0;exitPerimeter=0;entryX=-0.015;entryY=0.077;entryDx=0;entryDy=0;entryPerimeter=0;" edge="1" parent="WIyWlLk6GJQsqaUBKTNV-1" source="_XRhkgWkinT8Ey7R0ipr-4" target="_XRhkgWkinT8Ey7R0ipr-0">
          <mxGeometry width="160" relative="1" as="geometry">
            <mxPoint x="310" y="320" as="sourcePoint" />
            <mxPoint x="470" y="320" as="targetPoint" />
          </mxGeometry>
        </mxCell>
        <mxCell id="_XRhkgWkinT8Ey7R0ipr-31" value="" style="endArrow=block;startArrow=block;endFill=1;startFill=1;html=1;rounded=0;exitX=1;exitY=0.5;exitDx=0;exitDy=0;entryX=-0.022;entryY=0.17;entryDx=0;entryDy=0;entryPerimeter=0;" edge="1" parent="WIyWlLk6GJQsqaUBKTNV-1" source="_XRhkgWkinT8Ey7R0ipr-14" target="_XRhkgWkinT8Ey7R0ipr-9">
          <mxGeometry width="160" relative="1" as="geometry">
            <mxPoint x="310" y="320" as="sourcePoint" />
            <mxPoint x="470" y="320" as="targetPoint" />
          </mxGeometry>
        </mxCell>
        <mxCell id="_XRhkgWkinT8Ey7R0ipr-32" value="" style="endArrow=block;startArrow=block;endFill=1;startFill=1;html=1;rounded=0;exitX=0.995;exitY=0.994;exitDx=0;exitDy=0;exitPerimeter=0;entryX=0.003;entryY=0.911;entryDx=0;entryDy=0;entryPerimeter=0;" edge="1" parent="WIyWlLk6GJQsqaUBKTNV-1" source="_XRhkgWkinT8Ey7R0ipr-24" target="_XRhkgWkinT8Ey7R0ipr-11">
          <mxGeometry width="160" relative="1" as="geometry">
            <mxPoint x="310" y="320" as="sourcePoint" />
            <mxPoint x="241" y="487" as="targetPoint" />
          </mxGeometry>
        </mxCell>
        <mxCell id="_XRhkgWkinT8Ey7R0ipr-34" value="" style="endArrow=block;startArrow=block;endFill=1;startFill=1;html=1;rounded=0;exitX=0.997;exitY=0.231;exitDx=0;exitDy=0;exitPerimeter=0;entryX=0.006;entryY=0.064;entryDx=0;entryDy=0;entryPerimeter=0;" edge="1" parent="WIyWlLk6GJQsqaUBKTNV-1" source="_XRhkgWkinT8Ey7R0ipr-9" target="_XRhkgWkinT8Ey7R0ipr-17">
          <mxGeometry width="160" relative="1" as="geometry">
            <mxPoint x="310" y="320" as="sourcePoint" />
            <mxPoint x="470" y="320" as="targetPoint" />
          </mxGeometry>
        </mxCell>
        <mxCell id="_XRhkgWkinT8Ey7R0ipr-35" value="" style="endArrow=block;startArrow=block;endFill=1;startFill=1;html=1;rounded=0;exitX=1.046;exitY=0.832;exitDx=0;exitDy=0;exitPerimeter=0;entryX=0;entryY=0.079;entryDx=0;entryDy=0;entryPerimeter=0;" edge="1" parent="WIyWlLk6GJQsqaUBKTNV-1" source="_XRhkgWkinT8Ey7R0ipr-9" target="_XRhkgWkinT8Ey7R0ipr-26">
          <mxGeometry width="160" relative="1" as="geometry">
            <mxPoint x="310" y="320" as="sourcePoint" />
            <mxPoint x="470" y="320" as="targetPoint" />
          </mxGeometry>
        </mxCell>
        <mxCell id="_XRhkgWkinT8Ey7R0ipr-36" value="" style="endArrow=block;startArrow=block;endFill=1;startFill=1;html=1;rounded=0;exitX=0.5;exitY=0;exitDx=0;exitDy=0;entryX=0.416;entryY=1.06;entryDx=0;entryDy=0;entryPerimeter=0;" edge="1" parent="WIyWlLk6GJQsqaUBKTNV-1" source="_XRhkgWkinT8Ey7R0ipr-13" target="_XRhkgWkinT8Ey7R0ipr-7">
          <mxGeometry width="160" relative="1" as="geometry">
            <mxPoint x="310" y="320" as="sourcePoint" />
            <mxPoint x="470" y="320" as="targetPoint" />
          </mxGeometry>
        </mxCell>
        <mxCell id="_XRhkgWkinT8Ey7R0ipr-37" value="" style="endArrow=block;startArrow=block;endFill=1;startFill=1;html=1;rounded=0;exitX=0.5;exitY=1;exitDx=0;exitDy=0;entryX=0.5;entryY=0;entryDx=0;entryDy=0;" edge="1" parent="WIyWlLk6GJQsqaUBKTNV-1" source="_XRhkgWkinT8Ey7R0ipr-13" target="_XRhkgWkinT8Ey7R0ipr-21">
          <mxGeometry width="160" relative="1" as="geometry">
            <mxPoint x="290" y="440" as="sourcePoint" />
            <mxPoint x="450" y="440" as="targetPoint" />
          </mxGeometry>
        </mxCell>
        <mxCell id="_XRhkgWkinT8Ey7R0ipr-38" value="" style="endArrow=block;startArrow=block;endFill=1;startFill=1;html=1;rounded=0;exitX=1.014;exitY=0.059;exitDx=0;exitDy=0;exitPerimeter=0;entryX=0;entryY=0;entryDx=0;entryDy=0;" edge="1" parent="WIyWlLk6GJQsqaUBKTNV-1" source="_XRhkgWkinT8Ey7R0ipr-13" target="_XRhkgWkinT8Ey7R0ipr-17">
          <mxGeometry width="160" relative="1" as="geometry">
            <mxPoint x="290" y="440" as="sourcePoint" />
            <mxPoint x="450" y="440" as="targetPoint" />
            <Array as="points">
              <mxPoint x="410" y="300" />
            </Array>
          </mxGeometry>
        </mxCell>
        <mxCell id="_XRhkgWkinT8Ey7R0ipr-39" value="" style="endArrow=block;startArrow=block;endFill=1;startFill=1;html=1;rounded=0;exitX=0.75;exitY=1;exitDx=0;exitDy=0;entryX=0.366;entryY=1.058;entryDx=0;entryDy=0;entryPerimeter=0;" edge="1" parent="WIyWlLk6GJQsqaUBKTNV-1" source="_XRhkgWkinT8Ey7R0ipr-21" target="_XRhkgWkinT8Ey7R0ipr-29">
          <mxGeometry width="160" relative="1" as="geometry">
            <mxPoint x="290" y="440" as="sourcePoint" />
            <mxPoint x="450" y="440" as="targetPoint" />
            <Array as="points">
              <mxPoint x="410" y="830" />
            </Array>
          </mxGeometry>
        </mxCell>
        <mxCell id="_XRhkgWkinT8Ey7R0ipr-40" value="review" style="swimlane;fontStyle=1;align=center;verticalAlign=top;childLayout=stackLayout;horizontal=1;startSize=26;horizontalStack=0;resizeParent=1;resizeParentMax=0;resizeLast=0;collapsible=1;marginBottom=0;whiteSpace=wrap;html=1;" vertex="1" parent="WIyWlLk6GJQsqaUBKTNV-1">
          <mxGeometry x="600" width="160" height="290" as="geometry" />
        </mxCell>
        <mxCell id="_XRhkgWkinT8Ey7R0ipr-41" value="&lt;div&gt;&amp;nbsp;id (String)&lt;/div&gt;&lt;div&gt;&amp;nbsp; &amp;nbsp; &amp;nbsp; &amp;nbsp; user_id (String) # FK to User&lt;/div&gt;&lt;div&gt;&amp;nbsp; &amp;nbsp; &amp;nbsp; &amp;nbsp; place_id (String) # FK to Place&lt;/div&gt;&lt;div&gt;&amp;nbsp; &amp;nbsp; &amp;nbsp; &amp;nbsp; rating (Integer)&lt;/div&gt;&lt;div&gt;&amp;nbsp; &amp;nbsp; &amp;nbsp; &amp;nbsp; comment (String)&lt;/div&gt;&lt;div&gt;&amp;nbsp; &amp;nbsp; &amp;nbsp; &amp;nbsp; created_at (DateTime)&lt;/div&gt;&lt;div&gt;&amp;nbsp; &amp;nbsp; &amp;nbsp; &amp;nbsp; updated_at (DateTime)&lt;/div&gt;&lt;div&gt;&lt;br&gt;&lt;/div&gt;" style="text;strokeColor=none;fillColor=none;align=left;verticalAlign=top;spacingLeft=4;spacingRight=4;overflow=hidden;rotatable=0;points=[[0,0.5],[1,0.5]];portConstraint=eastwest;whiteSpace=wrap;html=1;" vertex="1" parent="_XRhkgWkinT8Ey7R0ipr-40">
          <mxGeometry y="26" width="160" height="134" as="geometry" />
        </mxCell>
        <mxCell id="_XRhkgWkinT8Ey7R0ipr-42" value="" style="line;strokeWidth=1;fillColor=none;align=left;verticalAlign=middle;spacingTop=-1;spacingLeft=3;spacingRight=3;rotatable=0;labelPosition=right;points=[];portConstraint=eastwest;strokeColor=inherit;" vertex="1" parent="_XRhkgWkinT8Ey7R0ipr-40">
          <mxGeometry y="160" width="160" height="8" as="geometry" />
        </mxCell>
        <mxCell id="_XRhkgWkinT8Ey7R0ipr-43" value="__init__&lt;div&gt;to_dict&lt;/div&gt;&lt;div&gt;save&lt;/div&gt;&lt;div&gt;get&lt;/div&gt;&lt;div&gt;get_all&lt;/div&gt;&lt;div&gt;delete&lt;/div&gt;&lt;div&gt;get_by_user&lt;/div&gt;&lt;div&gt;get_by_place&lt;/div&gt;" style="text;strokeColor=none;fillColor=none;align=left;verticalAlign=top;spacingLeft=4;spacingRight=4;overflow=hidden;rotatable=0;points=[[0,0.5],[1,0.5]];portConstraint=eastwest;whiteSpace=wrap;html=1;" vertex="1" parent="_XRhkgWkinT8Ey7R0ipr-40">
          <mxGeometry y="168" width="160" height="122" as="geometry" />
        </mxCell>
        <mxCell id="_XRhkgWkinT8Ey7R0ipr-45" value="" style="endArrow=block;startArrow=block;endFill=1;startFill=1;html=1;rounded=0;exitX=0.848;exitY=-0.019;exitDx=0;exitDy=0;exitPerimeter=0;entryX=-0.021;entryY=0.798;entryDx=0;entryDy=0;entryPerimeter=0;" edge="1" parent="WIyWlLk6GJQsqaUBKTNV-1" source="_XRhkgWkinT8Ey7R0ipr-13" target="_XRhkgWkinT8Ey7R0ipr-41">
          <mxGeometry width="160" relative="1" as="geometry">
            <mxPoint x="360" y="390" as="sourcePoint" />
            <mxPoint x="520" y="390" as="targetPoint" />
          </mxGeometry>
        </mxCell>
        <mxCell id="_XRhkgWkinT8Ey7R0ipr-46" value="" style="endArrow=block;startArrow=block;endFill=1;startFill=1;html=1;rounded=0;exitX=1;exitY=0;exitDx=0;exitDy=0;entryX=-0.015;entryY=0.751;entryDx=0;entryDy=0;entryPerimeter=0;" edge="1" parent="WIyWlLk6GJQsqaUBKTNV-1" source="_XRhkgWkinT8Ey7R0ipr-8" target="_XRhkgWkinT8Ey7R0ipr-43">
          <mxGeometry width="160" relative="1" as="geometry">
            <mxPoint x="360" y="390" as="sourcePoint" />
            <mxPoint x="520" y="390" as="targetPoint" />
          </mxGeometry>
        </mxCell>
        <mxCell id="_XRhkgWkinT8Ey7R0ipr-48" value="" style="endArrow=block;startArrow=block;endFill=1;startFill=1;html=1;rounded=0;exitX=1.018;exitY=0.755;exitDx=0;exitDy=0;exitPerimeter=0;entryX=-0.024;entryY=0.74;entryDx=0;entryDy=0;entryPerimeter=0;" edge="1" parent="WIyWlLk6GJQsqaUBKTNV-1" source="_XRhkgWkinT8Ey7R0ipr-7" target="_XRhkgWkinT8Ey7R0ipr-41">
          <mxGeometry width="160" relative="1" as="geometry">
            <mxPoint x="360" y="390" as="sourcePoint" />
            <mxPoint x="520" y="390" as="targetPoint" />
            <Array as="points">
              <mxPoint x="400" y="180" />
            </Array>
          </mxGeometry>
        </mxCell>
        <mxCell id="_XRhkgWkinT8Ey7R0ipr-49" value="" style="endArrow=block;startArrow=block;endFill=1;startFill=1;html=1;rounded=0;exitX=1;exitY=0.5;exitDx=0;exitDy=0;entryX=1;entryY=0;entryDx=0;entryDy=0;" edge="1" parent="WIyWlLk6GJQsqaUBKTNV-1" source="_XRhkgWkinT8Ey7R0ipr-43" target="_XRhkgWkinT8Ey7R0ipr-17">
          <mxGeometry width="160" relative="1" as="geometry">
            <mxPoint x="360" y="390" as="sourcePoint" />
            <mxPoint x="520" y="390" as="targetPoint" />
          </mxGeometry>
        </mxCell>
        <mxCell id="_XRhkgWkinT8Ey7R0ipr-50" value="" style="endArrow=block;startArrow=block;endFill=1;startFill=1;html=1;rounded=0;exitX=1.022;exitY=0.225;exitDx=0;exitDy=0;exitPerimeter=0;entryX=1;entryY=0;entryDx=0;entryDy=0;" edge="1" parent="WIyWlLk6GJQsqaUBKTNV-1" source="_XRhkgWkinT8Ey7R0ipr-43" target="_XRhkgWkinT8Ey7R0ipr-26">
          <mxGeometry width="160" relative="1" as="geometry">
            <mxPoint x="360" y="390" as="sourcePoint" />
            <mxPoint x="830" y="340" as="targetPoint" />
            <Array as="points">
              <mxPoint x="820" y="300" />
            </Array>
          </mxGeometry>
        </mxCell>
        <mxCell id="_XRhkgWkinT8Ey7R0ipr-51" value="" style="endArrow=block;startArrow=block;endFill=1;startFill=1;html=1;rounded=0;exitX=1;exitY=0;exitDx=0;exitDy=0;entryX=-0.026;entryY=0.331;entryDx=0;entryDy=0;entryPerimeter=0;" edge="1" parent="WIyWlLk6GJQsqaUBKTNV-1" source="_XRhkgWkinT8Ey7R0ipr-21" target="_XRhkgWkinT8Ey7R0ipr-43">
          <mxGeometry width="160" relative="1" as="geometry">
            <mxPoint x="360" y="390" as="sourcePoint" />
            <mxPoint x="520" y="390" as="targetPoint" />
            <Array as="points">
              <mxPoint x="290" y="280" />
            </Array>
          </mxGeometry>
        </mxCell>
      </root>
    </mxGraphModel>
  </diagram>
</mxfile>
